<svg id="svg" version="1.1" viewBox="0 0 300 255.22388059701495" width="300" height="255.22388059701495" xmlns="http://www.w3.org/2000/svg"><svg xmlns="http://www.w3.org/2000/svg"><defs><clipPath id="clip-1"><rect x="0" y="0" transform="scale(0.22388,0.22388)" width="1340" height="1140" fill="none"/></clipPath></defs><g clip-path="url(#clip-1)" fill="none" fill-rule="nonzero" stroke="none" stroke-width="1" stroke-linecap="butt" stroke-linejoin="miter" stroke-miterlimit="10" stroke-dasharray="" stroke-dashoffset="0" font-family="none" font-weight="none" font-size="none" text-anchor="none" style="mix-blend-mode: normal"><path d="M0,0h300v255.22388h-300z" fill="#ffffff"/><path d="M138.02619,51.5841c1.4203,-0.23261 4.36433,-0.03918 5.81463,0.0759c9.3806,0.74396 19.34149,7.73194 25.83269,14.12507c1.56873,1.54522 4.22082,4.94396 5.69507,6.7603l25.16955,-8.65746c6.12179,-2.15127 11.61851,-4.27567 17.90664,-6.13276c0.61701,3.21873 2.08321,7.51478 3.10209,10.75366c-2.72216,1.14448 -5.92813,2.15754 -8.77925,3.05955c-10.89896,3.44799 -21.66918,7.59604 -32.57642,10.96433c3.34231,13.07216 2.87104,25.1259 -2.88806,37.35425c-1.6059,3.09425 -3.53037,6.01254 -5.74187,8.70761c-14.22627,17.11903 -38.71343,19.62672 -55.79239,5.21172c-9.10343,-7.83112 -14.71679,-18.96246 -15.60157,-30.93806c-1.06276,-12.84649 2.42239,-25.9106 10.97955,-35.61784c7.83022,-8.88291 14.74634,-14.66776 26.87933,-15.66627z" fill="#000000"/><path d="M170.92679,85.73328c0.26216,-0.0197 0.47149,0.03313 0.73433,0.07343c1.05918,1.82597 1.95201,8.96888 2.03687,11.20478c0.66537,17.55425 -12.57716,35.90933 -31.1906,36.67522c-8.14455,0.31343 -16.08112,-2.61649 -22.06858,-8.14679c-6.05104,-5.61493 -8.81552,-11.16761 -11.35276,-18.93c2.01067,-0.56642 4.17134,-1.32761 6.15201,-2.01493c18.50664,-6.42291 37.09142,-12.72067 55.68873,-18.86172z" fill="#ffffff"/><path d="M102.22522,166.88754c0.68776,-0.14082 0.48201,-0.19881 1.05179,0.02709c1.03993,6.1106 2.37784,11.90552 3.34925,18.12985c1.51679,-6.23418 2.53522,-11.80231 3.84761,-18.03179l4.27299,0.02955c0.8053,6.05373 2.7197,11.75866 3.40142,18.03716c1.41022,-5.07784 2.66328,-12.71037 3.67567,-18.06784l4.73731,0.01948c-0.68127,1.74716 -2.02075,8.55739 -2.49672,10.77828c-1.37306,5.2303 -2.3841,11.17254 -3.74261,16.60343c-1.57701,-0.05619 -2.47366,-0.08709 -4.05291,0.07343c-1.07328,-5.43157 -2.38858,-13.1559 -4.20627,-18.14373c-0.07612,2.33843 -2.38881,15.62687 -3.17776,17.87507c-1.56403,0.22433 -2.40179,0.29194 -3.98172,0.32194c-0.69112,-4.3744 -6.3356,-24.69716 -5.57306,-27.15045c0.77216,-0.39403 1.9941,-0.42157 2.895,-0.50149z" fill="#000000"/><path d="M178.71336,166.78657c0.89306,0.24269 3.23037,0.26284 4.25642,0.30224c1.38918,1.82754 4.31194,6.37142 5.4309,8.39351c1.21343,-1.51724 4.34776,-6.645 5.12239,-8.4694l4.61866,0.01164l-0.01142,27.4659l-4.30746,0.06179c0.00358,-4.64552 -0.01657,-9.29104 -0.06045,-13.93657l-0.11351,-6.04634c-0.93716,2.48261 -3.62955,6.20843 -5.18373,8.56433c-1.50604,-2.64739 -3.69045,-5.61381 -5.3503,-8.37582c0.25522,2.30709 0.17104,5.6006 0.16612,7.98448c0.02687,3.86642 -0.02261,7.73284 -0.14843,11.59724l-4.28866,0.00627z" fill="#000000"/><path d="M129.65687,167.0194l4.2291,-0.01791l0.04299,11.61425l8.03888,0.03336c-0.04388,-4.18119 -0.36761,-7.31575 0.01164,-11.63754l4.38022,0.00761c-0.13522,1.54097 -0.05351,3.62754 -0.03537,5.20299c0.08619,7.41358 -0.10276,14.8706 0.01903,22.27836l-4.3209,0.0056c-0.04701,-2.89836 -0.40634,-9.66 -0.12157,-12.09157c-2.6541,0.10254 -5.30933,0.18157 -7.965,0.23754c-0.09739,3.86843 -0.03649,7.99343 -0.0459,11.88157c-1.35067,0.00313 -2.80007,-0.06896 -4.15791,-0.11127c-0.28634,-8.7159 -0.07209,-18.60425 -0.07522,-27.40299z" fill="#000000"/><path d="M202.82866,167.00754l15.89463,0.02328l0.01007,3.53799c-3.01724,0.34455 -7.96746,0.23418 -11.1656,0.24537l-0.02664,7.80896l7.62537,0.05127l-0.03716,3.7997c-2.49224,0.10343 -5.0606,0.1303 -7.56,0.18739l-0.02082,3.97366l-0.00806,3.61746l11.20455,0.04769l-0.11351,4.03254l-15.83373,0.03313z" fill="#000000"/><path d="M149.91806,167.03216l4.31239,-0.0441c1.79955,3.57381 3.23284,7.32045 4.27724,11.18306c1.6753,-3.62306 3.3403,-7.38381 4.60813,-11.17209l4.85575,0.00896c-1.91799,4.02134 -3.68507,8.11299 -5.29813,12.26597c-1.69187,4.46619 -2.41343,10.54567 -1.71224,15.2156c-1.45791,-0.15739 -2.99261,-0.13366 -4.46351,-0.14597c0.07187,-10.03657 0.24582,-11.71679 -4.1991,-21.2109c-0.64634,-1.38045 -2.21955,-4.6594 -2.38052,-6.10052z" fill="#000000"/><path d="M88.19507,166.64149c6.19478,-1.06052 10.4841,5.3053 7.31866,10.64373c-1.4344,2.41881 -6.27291,8.91493 -9.30694,8.62858c-1.31754,-1.16306 1.08201,-4.64082 1.91888,-5.83612c1.76216,-2.33955 3.21269,-4.0256 4.28821,-6.78627c-1.26985,-1.21097 -2.54172,-2.34694 -3.61142,-3.73746c-2.88336,3.72649 -3.79433,4.8056 -8.29075,6.24828c1.41179,-4.87858 1.96164,-8.45709 7.68336,-9.16075z" fill="#000000"/><path d="M88.39388,188.20612c0.81179,0.19455 2.21127,1.81388 2.84776,2.47007c-0.76903,1.61104 -1.96813,3.28343 -2.40515,4.9594c-2.85828,-3.01478 -5.00373,-4.6106 -0.44261,-7.42948z" fill="#000000"/></g></svg></svg>